<svg width="24" height="24" viewBox="0 0 24 24" fill="none" xmlns="http://www.w3.org/2000/svg">
<path d="M4 22V6.41077C4 5.9963 4.14702 5.63691 4.44107 5.33259C4.73512 5.02826 5.08239 4.87609 5.48289 4.87609H15.7381C16.1371 4.87609 16.4868 5.02826 16.7871 5.33259C17.0873 5.63691 17.2375 5.9963 17.2375 6.41077V22L10.6105 19.0956L4 22ZM5.48289 19.6782L10.6105 17.3931L15.7381 19.6782V6.41077H5.48289V19.6782ZM18.5171 19.7329V3.52929H6.83469V2H18.5171C18.9176 2 19.2649 2.15163 19.5589 2.4549C19.853 2.75816 20 3.11629 20 3.52929V19.7329H18.5171Z" fill="black"/>
</svg>
