<svg width="24" height="24" viewBox="0 0 24 24" fill="none" xmlns="http://www.w3.org/2000/svg">
<path d="M2.7788 23.1375V5.775C2.7788 5.31338 2.94827 4.91311 3.2872 4.57417C3.62613 4.23522 4.02642 4.06575 4.48805 4.06575H16.3087C16.7687 4.06575 17.1717 4.23522 17.5178 4.57417C17.8639 4.91311 18.037 5.31338 18.037 5.775V23.1375L10.3984 19.9027L2.7788 23.1375ZM4.48805 20.5516L10.3984 18.0065L16.3087 20.5516V5.775H4.48805V20.5516ZM19.512 20.6125V2.56575H6.0462V0.862499H19.512C19.9736 0.862499 20.3739 1.03138 20.7128 1.36915C21.0517 1.7069 21.2212 2.10577 21.2212 2.56575V20.6125H19.512Z" fill="black"/>
</svg>
