<svg width="24" height="24" viewBox="0 0 24 24" fill="none" xmlns="http://www.w3.org/2000/svg">
<path d="M19.894 21.1424L13.2832 14.5375C12.7871 14.9586 12.2071 15.287 11.5432 15.5229C10.8792 15.7587 10.1695 15.8766 9.41413 15.8766C7.58354 15.8766 6.03396 15.2417 4.76538 13.9718C3.49679 12.7018 2.8625 11.1696 2.8625 9.375C2.8625 7.58043 3.49747 6.04818 4.7674 4.77825C6.03732 3.50833 7.57373 2.87337 9.37663 2.87337C11.1795 2.87337 12.7118 3.50833 13.9734 4.77825C15.235 6.04818 15.8658 7.58168 15.8658 9.37875C15.8658 10.1009 15.7521 10.7923 15.5247 11.453C15.2974 12.1137 14.9563 12.7337 14.5016 13.3131L21.1375 19.8989L19.894 21.1424ZM9.39125 14.1734C10.7201 14.1734 11.8475 13.7047 12.7735 12.7673C13.6995 11.8299 14.1625 10.6991 14.1625 9.375C14.1625 8.0509 13.6992 6.92015 12.7726 5.98275C11.846 5.04533 10.7189 4.57663 9.39125 4.57663C8.04969 4.57663 6.91004 5.04533 5.97233 5.98275C5.03461 6.92015 4.56575 8.0509 4.56575 9.375C4.56575 10.6991 5.03432 11.8299 5.97145 12.7673C6.90857 13.7047 8.0485 14.1734 9.39125 14.1734Z" fill="black"/>
</svg>
