<svg width="24" height="24" viewBox="0 0 24 24" fill="none" xmlns="http://www.w3.org/2000/svg">
<path d="M10.0173 21.5L9.5654 18.4942C9.2231 18.3775 8.85451 18.208 8.45963 17.9856C8.06476 17.7631 7.72437 17.5275 7.43847 17.2788L4.64232 18.5519L2.64427 15.0192L5.1712 13.1596C5.13787 12.984 5.11382 12.7923 5.09907 12.5846C5.08432 12.3769 5.07695 12.1853 5.07695 12.0096C5.07695 11.8404 5.08432 11.6519 5.09907 11.4442C5.11382 11.2365 5.13787 11.0352 5.1712 10.8404L2.64427 8.97115L4.64232 5.46735L7.42885 6.7212C7.73398 6.47247 8.07758 6.23848 8.45963 6.01925C8.84169 5.80002 9.20708 5.6372 9.5558 5.5308L10.0173 2.50002H13.9827L14.4346 5.5154C14.8025 5.6513 15.1705 5.81989 15.5385 6.02117C15.9064 6.22246 16.2378 6.4558 16.5327 6.7212L19.3673 5.46735L21.3557 8.97115L18.7904 10.8289C18.8365 11.0276 18.8653 11.2276 18.8769 11.4289C18.8884 11.6301 18.8942 11.8205 18.8942 12C18.8942 12.1731 18.8868 12.3577 18.8721 12.5539C18.8573 12.75 18.8301 12.9539 18.7904 13.1654L21.3461 15.0192L19.348 18.5519L16.5327 17.2692C16.2211 17.5307 15.8849 17.7721 15.524 17.9933C15.1631 18.2144 14.8 18.3782 14.4346 18.4846L13.9827 21.5H10.0173ZM11.9712 14.8173C12.7558 14.8173 13.4214 14.5439 13.9682 13.9971C14.515 13.4503 14.7884 12.7846 14.7884 12C14.7884 11.2154 14.515 10.5497 13.9682 10.0029C13.4214 9.45612 12.7558 9.18273 11.9712 9.18273C11.193 9.18273 10.5289 9.45612 9.97887 10.0029C9.42887 10.5497 9.15387 11.2154 9.15387 12C9.15387 12.7846 9.42887 13.4503 9.97887 13.9971C10.5289 14.5439 11.193 14.8173 11.9712 14.8173ZM11.9712 13.6827C11.5071 13.6827 11.1106 13.5183 10.7817 13.1894C10.4529 12.8606 10.2885 12.4641 10.2885 12C10.2885 11.5359 10.4529 11.1394 10.7817 10.8106C11.1106 10.4817 11.5071 10.3173 11.9712 10.3173C12.4417 10.3173 12.8397 10.4817 13.1654 10.8106C13.491 11.1394 13.6538 11.5359 13.6538 12C13.6538 12.4641 13.491 12.8606 13.1654 13.1894C12.8397 13.5183 12.4417 13.6827 11.9712 13.6827ZM10.9288 20.3654H13.0615L13.4212 17.575C13.9519 17.4417 14.4471 17.243 14.9067 16.9789C15.3663 16.7147 15.8058 16.3795 16.225 15.9731L18.8365 17.1039L19.8365 15.3327L17.525 13.6269C17.5917 13.3308 17.6442 13.0516 17.6827 12.7894C17.7211 12.5272 17.7404 12.2641 17.7404 12C17.7404 11.7231 17.7237 11.4567 17.6904 11.201C17.657 10.9452 17.6019 10.6757 17.525 10.3923L19.8557 8.66733L18.8557 6.89615L16.2154 8.02693C15.8641 7.63206 15.4404 7.28398 14.9442 6.9827C14.4481 6.68142 13.9372 6.49552 13.4115 6.425L13.0712 3.63463H10.9288L10.5981 6.4154C10.0442 6.52565 9.53431 6.71442 9.06827 6.98172C8.60226 7.24904 8.16797 7.59424 7.7654 8.01733L5.14425 6.89615L4.14425 8.66733L6.45577 10.3635C6.38269 10.6276 6.32692 10.8955 6.28847 11.1673C6.25001 11.4391 6.23077 11.7199 6.23077 12.0096C6.23077 12.2865 6.25001 12.5577 6.28847 12.8231C6.32692 13.0885 6.37948 13.3564 6.44615 13.6269L4.14425 15.3327L5.14425 17.1039L7.75577 15.9827C8.15577 16.3891 8.59039 16.7244 9.05963 16.9885C9.52886 17.2526 10.0385 17.4513 10.5885 17.5846L10.9288 20.3654Z" fill="black"/>
</svg>
