<svg width="24" height="24" viewBox="0 0 24 24" fill="none" xmlns="http://www.w3.org/2000/svg">
<path d="M4.50003 18.8846V17.75H6.30773V9.85193C6.30773 8.49791 6.71862 7.2905 7.5404 6.2297C8.3622 5.16888 9.43208 4.51123 10.75 4.25675V3.75002C10.75 3.40281 10.8714 3.10768 11.1143 2.86463C11.3571 2.62156 11.652 2.50002 11.9989 2.50002C12.3458 2.50002 12.641 2.62156 12.8846 2.86463C13.1282 3.10768 13.25 3.40281 13.25 3.75002V4.26155C14.5679 4.51283 15.6378 5.16888 16.4596 6.2297C17.2814 7.2905 17.6923 8.49791 17.6923 9.85193V17.75H19.5V18.8846H4.50003ZM11.9983 21.6923C11.5007 21.6923 11.0753 21.5153 10.7221 21.1613C10.3689 20.8073 10.1923 20.3817 10.1923 19.8846H13.8077C13.8077 20.3833 13.6305 20.8093 13.2762 21.1625C12.9218 21.5157 12.4959 21.6923 11.9983 21.6923ZM7.4423 17.75H16.5577V9.85193C16.5577 8.58909 16.1138 7.51377 15.226 6.62595C14.3381 5.73813 13.2628 5.29422 12 5.29422C10.7372 5.29422 9.66186 5.73813 8.77403 6.62595C7.88621 7.51377 7.4423 8.58909 7.4423 9.85193V17.75Z" fill="black"/>
</svg>
