<svg width="24" height="24" viewBox="0 0 24 24" fill="none" xmlns="http://www.w3.org/2000/svg">
<path d="M6.23077 13.5C5.81829 13.5 5.46517 13.3531 5.17142 13.0594C4.87769 12.7656 4.73082 12.4125 4.73082 12C4.73082 11.5875 4.87769 11.2344 5.17142 10.9406C5.46517 10.6469 5.81829 10.5 6.23077 10.5C6.64327 10.5 6.99639 10.6469 7.29012 10.9406C7.58387 11.2344 7.73074 11.5875 7.73074 12C7.73074 12.4125 7.58387 12.7656 7.29012 13.0594C6.99639 13.3531 6.64327 13.5 6.23077 13.5ZM12 13.5C11.5875 13.5 11.2344 13.3531 10.9406 13.0594C10.6469 12.7656 10.5 12.4125 10.5 12C10.5 11.5875 10.6469 11.2344 10.9406 10.9406C11.2344 10.6469 11.5875 10.5 12 10.5C12.4125 10.5 12.7656 10.6469 13.0593 10.9406C13.3531 11.2344 13.5 11.5875 13.5 12C13.5 12.4125 13.3531 12.7656 13.0593 13.0594C12.7656 13.3531 12.4125 13.5 12 13.5ZM17.7692 13.5C17.3567 13.5 17.0036 13.3531 16.7099 13.0594C16.4161 12.7656 16.2692 12.4125 16.2692 12C16.2692 11.5875 16.4161 11.2344 16.7099 10.9406C17.0036 10.6469 17.3567 10.5 17.7692 10.5C18.1817 10.5 18.5348 10.6469 18.8286 10.9406C19.1223 11.2344 19.2692 11.5875 19.2692 12C19.2692 12.4125 19.1223 12.7656 18.8286 13.0594C18.5348 13.3531 18.1817 13.5 17.7692 13.5Z" fill="black"/>
</svg>
